<?xml version="1.0" encoding="utf-8"?>
<!-- Generator: Adobe Illustrator 19.0.0, SVG Export Plug-In . SVG Version: 6.00 Build 0)  -->
<svg version="1.1" id="Layer_1" xmlns="http://www.w3.org/2000/svg" xmlns:xlink="http://www.w3.org/1999/xlink" x="0px" y="0px"
	 viewBox="-48 245.5 513.7 302.5" style="enable-background:new -48 245.5 513.7 302.5;" xml:space="preserve">
<style type="text/css">
	.st0{fill:#E6E7E8;}
	.st1{fill:none;}
	.st2{fill:#00A14B;}
	.st3{font-family:'HeptaSlab-Medium';}
	.st4{font-size:43px;}
	.st5{fill:#0D161E;}
	.st6{font-family:'HeptaSlab-ExtraLight';}
	.st7{font-size:11.3826px;}
	.st8{fill:url(#XMLID_2_);}
	.st9{fill:url(#XMLID_3_);}
	.st10{fill:url(#XMLID_4_);}
</style>
<g id="Layer_1_1_">
</g>
<g id="Layer_2">
</g>
<path id="XMLID_303_" class="st0" d="M443.9,549.2H-24.7c-13.4,0-24.3-10.9-24.3-24.3V269.1c0-13.4,10.9-24.3,24.3-24.3h468.5
	c13.4,0,24.3,10.9,24.3,24.3v255.8C468.2,538.3,457.3,549.2,443.9,549.2z"/>
<rect id="XMLID_31_" x="125.4" y="439.8" class="st1" width="304.5" height="52.9"/>
<text id="XMLID_230_" transform="matrix(1 0 0 1 125.3932 473.7549)" class="st2 st3 st4">Eco-Chart</text>
<rect id="XMLID_27_" x="370" y="277.8" class="st1" width="65.8" height="14"/>
<text id="XMLID_320_" transform="matrix(1 0 0 1 373.4955 286.7926)" class="st5 st6 st7">Mrk Rphl</text>
<circle id="XMLID_229_" cx="-2.9" cy="480.8" r="7"/>
<circle id="XMLID_228_" cx="36.6" cy="512.4" r="9.3"/>
<circle id="XMLID_227_" cx="106.6" cy="456.5" r="9.3"/>
<path id="XMLID_226_" d="M-4.1,474.5l40.7,35.6c0,0,43-38.7,66.1-57.7c1.5,1.4,3,2.8,4.6,4.2c-23.3,21-48,42.6-71.3,63.5
	c-23.3-20.4-21.1-20-44.3-40.4C-7.3,476.9-4.1,474.5-4.1,474.5z"/>
<linearGradient id="XMLID_2_" gradientUnits="userSpaceOnUse" x1="83.553" y1="343.562" x2="174.9022" y2="343.562">
	<stop  offset="0" style="stop-color:#F36F2A"/>
	<stop  offset="1" style="stop-color:#983620"/>
</linearGradient>
<path id="XMLID_225_" class="st8" d="M109.5,421.5c5.7,5.2,23.7-4.6,34.4-13.2c22.8-18.4,28.4-44.6,29.4-49.2
	c3-14.9,1.3-19.8-0.3-43.1c-0.9-31,1.6-51.8,1.6-51.8s-38.6,18.1-52.9,30.7c-17.8,15.6-26.7,23.5-32.5,37.6c-13,31.4,0,68,6.3,68
	c4.5,0,3.2-18,17.2-44.4c11.9-22.5,32.5-38.7,32.5-38.7s-1.7,4.2-7.7,18.4c-4.3,10.1-14.5,34.3-21.7,54.8
	C106.3,417.4,108.3,420.4,109.5,421.5z"/>
<path id="XMLID_224_" d="M110.8,457c0-34.5,1.1-54.7,6.7-68.6c1.7-4.2,4.5-12.3,10.4-27.1c6.7-16.6,7.4-19.6,13.2-33.3
	c4.7-11.1,7.3-16.4,6.9-16.7c-0.7-0.4-9.1,14.3-14,23.3c-8.7,15.9-13.1,23.8-17.7,35.7c-2.7,6.8-7.7,17.9-10.6,32.9
	c-3,15.5-3.2,25.1-3.2,31.6c0,6.5,0,22.5,0,22.5L110.8,457z"/>
<g id="XMLID_221_">
	
		<linearGradient id="XMLID_3_" gradientUnits="userSpaceOnUse" x1="226.6722" y1="463.4769" x2="258.222" y2="463.4769" gradientTransform="matrix(0.9739 0.2268 -0.2268 0.9739 80.8744 -191.3819)">
		<stop  offset="0" style="stop-color:#F36F2A"/>
		<stop  offset="1" style="stop-color:#983620"/>
	</linearGradient>
	<path id="XMLID_223_" class="st9" d="M199.2,339.7c1.5,2.2,8.3,0.3,12.6-1.8c9.1-4.4,13.1-12.8,13.7-14.2c2.2-4.8,2-6.5,3.3-14.5
		c2.1-10.5,4.6-17.3,4.6-17.3s-14.4,3.1-20.2,6.2c-7.2,3.9-10.8,5.8-13.9,10.1c-6.8,9.6-5.3,22.9-3.2,23.4c1.5,0.4,2.5-5.8,9.3-13.6
		c5.8-6.6,14-10.5,14-10.5s-0.9,1.3-4,5.6c-2.2,3.1-7.6,10.4-11.6,16.7C198.4,338.1,198.8,339.2,199.2,339.7z"/>
	<path id="XMLID_222_" d="M199.7,340.4c1.5-5.1,2.9-8.7,4.8-11.3c0.9-1.3,2.5-3.8,5.6-8.3c3.6-5.1,4-6,7.1-10.2
		c2.4-3.4,3.7-5,3.6-5.1c-0.2-0.2-4.2,4.1-6.5,6.7c-4.2,4.7-6.3,7-8.8,10.6c-1.4,2.1-4,5.4-6.1,10.2c-1.2,2.6-2,4.8-2.5,6.6
		L199.7,340.4z"/>
</g>
<g id="XMLID_218_">
	
		<linearGradient id="XMLID_4_" gradientUnits="userSpaceOnUse" x1="942.3427" y1="958.4149" x2="1011.2938" y2="958.4149" gradientTransform="matrix(-0.2671 -0.9637 -0.9637 0.2671 1394.6385 1074.9482)">
		<stop  offset="0" style="stop-color:#F36F2A"/>
		<stop  offset="1" style="stop-color:#983620"/>
	</linearGradient>
	<path id="XMLID_220_" class="st10" d="M157.4,419.7c-4.9-3.1-1.4-18.2,2.7-27.7c8.8-20.3,26.7-29.7,29.9-31.3
		c10.2-5.2,14.1-4.9,31.4-8.5c22.7-5.6,37.4-11.6,37.4-11.6s-5.4,31.7-11.7,44.7c-7.8,16.1-11.7,24.1-20.8,31.2
		c-20.2,15.8-49.4,13.7-50.7,9.1c-0.9-3.2,12.4-5.9,28.9-21.5c14-13.2,21.6-31.5,21.6-31.5s-2.7,2.1-11.8,9.3
		c-6.5,5.2-22,17.5-35.5,26.8C161,421.2,158.4,420.4,157.4,419.7z"/>
	<path id="XMLID_219_" d="M173.6,424.2c5.4-2.8,9.7-5.4,13.3-8.5c2.6-2.3,8.5-6.6,16.9-15.3c9.4-9.7,11-11.8,17.2-20.6
		c5.2-7.4,6.2-11,6.5-10.8c0.5,0.4-3.8,13.2-8.5,19.3c-8.3,10.8-12.3,15.5-19.1,22.3c-3.9,3.9-10.8,9.7-20.3,16.3
		c-0.7,0.5-1.3,0.9-2,1.4L173.6,424.2z"/>
</g>
</svg>
