<?xml version="1.0" encoding="utf-8"?>
<!-- Generator: Adobe Illustrator 19.0.0, SVG Export Plug-In . SVG Version: 6.00 Build 0)  -->
<svg version="1.1" id="Layer_1" xmlns="http://www.w3.org/2000/svg" xmlns:xlink="http://www.w3.org/1999/xlink" x="0px" y="0px"
	 viewBox="-46 244.5 517.2 304.5" style="enable-background:new -46 244.5 517.2 304.5;" xml:space="preserve">
<style type="text/css">
	.st0{fill:#0D161E;}
	.st1{fill:none;}
	.st2{fill:#00A14B;}
	.st3{font-family:'HeptaSlab-Medium';}
	.st4{font-size:43px;}
	.st5{fill:#FFFFFF;}
	.st6{fill:url(#XMLID_2_);}
	.st7{fill:url(#XMLID_3_);}
	.st8{fill:url(#XMLID_4_);}
	.st9{fill:#E6E7E8;}
	.st10{font-family:'HeptaSlab-ExtraLight';}
	.st11{font-size:11.3826px;}
</style>
<g id="Layer_1_1_">
</g>
<g id="Layer_2">
</g>
<path id="XMLID_420_" class="st0" d="M446.4,548H-18.7c-13.4,0-24.3-10.9-24.3-24.3V269.8c0-13.4,10.9-24.3,24.3-24.3h465.1
	c13.4,0,24.3,10.9,24.3,24.3v253.8C470.7,537.1,459.8,548,446.4,548z"/>
<g id="XMLID_417_">
	<rect id="XMLID_10_" x="130.2" y="439.2" class="st1" width="267.7" height="51.2"/>
	<text transform="matrix(1 0 0 1 130.2294 473.2064)" class="st2 st3 st4">Eco-Chart</text>
</g>
<circle id="XMLID_412_" class="st5" cx="2.8" cy="480" r="6.9"/>
<circle id="XMLID_411_" class="st5" cx="42" cy="511.4" r="9.3"/>
<circle id="XMLID_410_" class="st5" cx="111.6" cy="455.8" r="9.3"/>
<path id="XMLID_409_" class="st5" d="M1.6,473.7L42,509.1c0,0,42.8-38.5,65.6-57.3c1.5,1.4,3,2.8,4.5,4.1
	C89,476.7,64.5,498.2,41.3,519c-23.1-20.3-20.9-19.9-44-40.2C-1.6,476.1,1.6,473.7,1.6,473.7z"/>
<linearGradient id="XMLID_2_" gradientUnits="userSpaceOnUse" x1="88.6678" y1="343.6556" x2="179.4069" y2="343.6556">
	<stop  offset="0" style="stop-color:#F36F2A"/>
	<stop  offset="1" style="stop-color:#983620"/>
</linearGradient>
<path id="XMLID_408_" class="st6" d="M114.4,421.1c5.6,5.2,23.6-4.6,34.2-13.1c22.6-18.3,28.2-44.3,29.2-48.9
	c3-14.8,1.3-19.6-0.3-42.8c-0.9-30.8,1.6-51.5,1.6-51.5s-38.4,18-52.5,30.5c-17.6,15.5-26.5,23.3-32.3,37.3
	c-12.9,31.2,0,67.5,6.3,67.5c4.4,0,3.1-17.8,17.1-44.1c11.9-22.4,32.3-38.5,32.3-38.5s-1.7,4.2-7.6,18.3
	c-4.3,10.1-14.4,34.1-21.5,54.4C111.3,417,113.3,420,114.4,421.1z"/>
<path id="XMLID_407_" class="st5" d="M115.8,456.3c0-34.3,1.1-54.4,6.7-68.2c1.7-4.2,4.5-12.2,10.4-26.9
	c6.6-16.5,7.4-19.5,13.1-33.1c4.6-11,7.3-16.3,6.8-16.6c-0.7-0.4-9,14.2-13.9,23.1c-8.7,15.8-13,23.6-17.6,35.5
	c-2.6,6.8-7.6,17.8-10.5,32.7c-3,15.4-3.2,24.9-3.2,31.4c0,6.5,0,22.3,0,22.3L115.8,456.3z"/>
<g id="XMLID_404_">
	
		<linearGradient id="XMLID_3_" gradientUnits="userSpaceOnUse" x1="231.093" y1="463.6954" x2="262.4321" y2="463.6954" gradientTransform="matrix(0.9739 0.2268 -0.2268 0.9739 80.9786 -192.289)">
		<stop  offset="0" style="stop-color:#F36F2A"/>
		<stop  offset="1" style="stop-color:#983620"/>
	</linearGradient>
	<path id="XMLID_406_" class="st7" d="M203.5,339.8c1.5,2.2,8.3,0.3,12.5-1.7c9-4.4,13-12.7,13.6-14.2c2.2-4.7,2-6.5,3.3-14.4
		c2.1-10.4,4.6-17.2,4.6-17.2s-14.3,3.1-20.1,6.1c-7.2,3.8-10.7,5.8-13.8,10c-6.8,9.5-5.3,22.7-3.2,23.2c1.5,0.3,2.5-5.8,9.2-13.5
		c5.7-6.6,13.9-10.4,13.9-10.4s-0.9,1.3-4,5.5c-2.2,3.1-7.5,10.3-11.5,16.6C202.8,338.2,203.2,339.3,203.5,339.8z"/>
	<path id="XMLID_405_" class="st5" d="M204,340.5c1.5-5.1,2.9-8.6,4.7-11.2c0.9-1.3,2.5-3.8,5.6-8.2c3.5-5,4-6,7-10.1
		c2.4-3.3,3.7-4.9,3.6-5c-0.2-0.2-4.1,4.1-6.5,6.7c-4.1,4.6-6.2,6.9-8.7,10.6c-1.4,2.1-4,5.4-6.1,10.2c-1.2,2.6-2,4.8-2.5,6.5
		L204,340.5z"/>
</g>
<g id="XMLID_401_">
	
		<linearGradient id="XMLID_4_" gradientUnits="userSpaceOnUse" x1="946.7073" y1="958.0978" x2="1015.198" y2="958.0978" gradientTransform="matrix(-0.2671 -0.9637 -0.9637 0.2671 1399.7072 1078.803)">
		<stop  offset="0" style="stop-color:#F36F2A"/>
		<stop  offset="1" style="stop-color:#983620"/>
	</linearGradient>
	<path id="XMLID_403_" class="st8" d="M162,419.3c-4.9-3.1-1.4-18.1,2.7-27.5c8.7-20.1,26.5-29.5,29.7-31.1
		c10.1-5.1,14-4.9,31.2-8.4c22.6-5.5,37.1-11.5,37.1-11.5s-5.4,31.5-11.6,44.4c-7.7,16-11.6,24-20.6,31c-20.1,15.7-49.1,13.6-50.4,9
		c-0.9-3.2,12.3-5.9,28.7-21.3c13.9-13.1,21.5-31.3,21.5-31.3s-2.7,2-11.7,9.2c-6.5,5.1-21.9,17.4-35.2,26.6
		C165.6,420.8,163,420,162,419.3z"/>
	<path id="XMLID_402_" class="st5" d="M178.1,423.8c5.4-2.8,9.7-5.4,13.2-8.4c2.6-2.3,8.4-6.6,16.7-15.2
		c9.4-9.6,10.9-11.7,17.1-20.5c5.2-7.4,6.1-10.9,6.4-10.7c0.5,0.4-3.8,13.1-8.4,19.2c-8.3,10.8-12.3,15.4-19,22.2
		c-3.9,3.9-10.7,9.7-20.1,16.2c-0.7,0.5-1.3,0.9-2,1.4L178.1,423.8z"/>
</g>
<rect id="XMLID_15_" x="376" y="278.2" class="st1" width="65.8" height="14"/>
<text id="XMLID_86_" transform="matrix(1 0 0 1 379.4955 287.2316)" class="st9 st10 st11">Mrk Rphl</text>
</svg>
