<?xml version="1.0" encoding="utf-8"?>
<!-- Generator: Adobe Illustrator 19.0.0, SVG Export Plug-In . SVG Version: 6.00 Build 0)  -->
<svg version="1.1" id="Layer_1" xmlns="http://www.w3.org/2000/svg" xmlns:xlink="http://www.w3.org/1999/xlink" x="0px" y="0px"
	 viewBox="-293 385 24 24" style="enable-background:new -293 385 24 24;" xml:space="preserve">
<style type="text/css">
	.st0{fill:#FFFFFF;}
</style>
<path class="st0" d="M-274.8,402.1c-0.7,0-1.5,0-2.2,0.1c-0.4,0-0.6,0.3-0.6,0.7c0,0.3,0.3,0.6,0.7,0.6c0.2,0,0.3,0,0.6,0
	c-1.2,1.1-2.4,1.8-3.9,1.9c0-2.3,0-4.5,0-6.7c0.1,0,0.1,0,0.1,0c0.4,0,0.7,0,1.1,0c0.5,0,0.8-0.2,0.8-0.7c0-0.4-0.3-0.7-0.8-0.7
	c-0.4,0-0.8,0-1.2,0c0-0.4,0-0.7,0-1c0-0.3,0.1-0.5,0.4-0.7c0.8-0.4,1.2-1.4,0.9-2.3c-0.2-0.5-0.5-1-1-1.2c0,0,0-0.1,0-0.1v-2.6h5
	c0.6,0,1-0.4,1-1s-0.4-1-1-1h-12c-0.6,0-1,0.4-1,1s0.4,1,1,1h5v2.6c0,0.1,0,0.1,0,0.2c-0.5,0.3-0.9,0.7-1,1.3
	c-0.2,0.9,0.2,1.8,1,2.2c0.1,0.1,0.3,0.2,0.3,0.3c0,0.4,0,0.8,0,1.3c-0.4,0-0.8,0-1.2,0c-0.5,0-0.8,0.3-0.8,0.7
	c0,0.4,0.3,0.7,0.8,0.7c0.4,0,0.8,0,1.2,0c0,2.3,0,4.5,0,6.7c-1.2,0-3.4-1-3.8-1.9c0.1,0,0.2,0,0.3,0c0.5,0,0.7-0.2,0.8-0.6
	c0-0.4-0.2-0.7-0.7-0.7c-0.6-0.1-1.3-0.1-1.9-0.1c-0.4,0-0.7,0.2-0.7,0.6c-0.1,0.7-0.1,1.4-0.1,2.1c0,0.4,0.2,0.6,0.6,0.7
	c0.4,0,0.6-0.1,0.7-0.5c0-0.1,0.1-0.2,0.1-0.4c1.4,1.3,2.9,2,4.8,2.2c0,0.3,0,0.5,0,0.7c0,0.4,0.3,0.7,0.7,0.7
	c0.4,0,0.6-0.3,0.7-0.7c0-0.1,0-0.3,0-0.4c0-0.3,0.1-0.3,0.3-0.4c1.6-0.2,3.1-0.8,4.3-1.9c0.1,0,0.1-0.1,0.2-0.1
	c0,0.1,0,0.1,0.1,0.2c0.1,0.5,0.4,0.7,0.8,0.6c0.4-0.1,0.6-0.4,0.6-0.8c0-0.6-0.1-1.2-0.1-1.9C-274.3,402.4-274.5,402.1-274.8,402.1
	z M-281,394.6c-0.4,0-0.7-0.3-0.7-0.7c0-0.4,0.3-0.7,0.7-0.7c0.4,0,0.7,0.3,0.7,0.7C-280.3,394.3-280.6,394.6-281,394.6z"/>
</svg>
