<?xml version="1.0" encoding="utf-8"?>
<!-- Generator: Adobe Illustrator 19.0.0, SVG Export Plug-In . SVG Version: 6.00 Build 0)  -->
<svg version="1.1" id="Layer_1" xmlns="http://www.w3.org/2000/svg" xmlns:xlink="http://www.w3.org/1999/xlink" x="0px" y="0px"
	 viewBox="30 -29.9 100 60" style="enable-background:new 30 -29.9 100 60;" xml:space="preserve">
<style type="text/css">
	.st0{enable-background:new    ;}
	.st1{fill:#00A14B;}
	.st2{fill:#FFFFFF;}
	.st3{fill:#F26F2B;}
	.st4{fill:#BC4E25;}
	.st5{fill:#D45D28;}
</style>
<g id="XMLID_37_" class="st0">
	<path class="st1" d="M73.9,16.2h1v2.2h-7v-0.9H69v-5.6h-1.1V11h6.9v2.2h-1v-1.3H70v5.6h3.9V16.2z M72.9,14.2v0.8h-3.4v-0.8H72.9z"
		/>
	<path class="st1" d="M78.6,18.5c-0.6,0-1-0.1-1.4-0.3c-0.4-0.2-0.7-0.5-0.9-1c-0.2-0.4-0.3-0.9-0.3-1.4c0-0.4,0.1-0.8,0.2-1.1
		c0.1-0.3,0.3-0.6,0.5-0.9c0.2-0.2,0.5-0.4,0.8-0.6c0.3-0.1,0.7-0.2,1-0.2c0.4,0,0.6,0.1,0.9,0.2c0.2,0.1,0.4,0.3,0.5,0.5
		c0.1,0.2,0.2,0.4,0.2,0.7h0.2L80,15.1c0-0.2-0.1-0.5-0.3-0.7c-0.1-0.2-0.3-0.3-0.5-0.5c-0.2-0.1-0.5-0.2-0.7-0.2
		c-0.3,0-0.6,0.1-0.9,0.2c-0.3,0.2-0.5,0.4-0.6,0.7c-0.1,0.3-0.2,0.6-0.2,1c0,0.4,0.1,0.7,0.2,1c0.1,0.3,0.4,0.5,0.6,0.7
		c0.3,0.2,0.6,0.2,1,0.2c0.4,0,0.7-0.1,1-0.2s0.5-0.4,0.6-0.6l0.9,0.4c-0.2,0.4-0.5,0.7-0.9,1C79.6,18.4,79.1,18.5,78.6,18.5z
		 M80,15.1v-2h0.9v2H80z"/>
	<path class="st1" d="M84.8,18.5c-0.5,0-1-0.1-1.4-0.3c-0.4-0.2-0.7-0.5-1-1c-0.2-0.4-0.3-0.9-0.3-1.4c0-0.5,0.1-1,0.3-1.4
		c0.2-0.4,0.6-0.7,1-1c0.4-0.2,0.9-0.4,1.4-0.4s1,0.1,1.4,0.4c0.4,0.2,0.7,0.6,1,1c0.2,0.4,0.3,0.9,0.3,1.4c0,0.5-0.1,1-0.3,1.4
		c-0.2,0.4-0.6,0.7-1,1C85.8,18.4,85.3,18.5,84.8,18.5z M84.8,17.6c0.4,0,0.7-0.1,0.9-0.2c0.3-0.2,0.5-0.4,0.6-0.6
		c0.2-0.3,0.2-0.6,0.2-1c0-0.4-0.1-0.7-0.2-1c-0.2-0.3-0.4-0.5-0.6-0.7c-0.3-0.2-0.6-0.2-0.9-0.2c-0.4,0-0.7,0.1-0.9,0.2
		c-0.3,0.2-0.5,0.4-0.6,0.7c-0.2,0.3-0.2,0.6-0.2,1c0,0.4,0.1,0.7,0.2,1c0.2,0.3,0.4,0.5,0.6,0.6C84.1,17.5,84.4,17.6,84.8,17.6z"/>
	<path class="st1" d="M91.2,15.2V16h-2.8v-0.8H91.2z"/>
	<path class="st1" d="M95.8,18.5c-0.5,0-1-0.1-1.5-0.3c-0.5-0.2-0.9-0.5-1.2-0.8c-0.3-0.3-0.6-0.7-0.8-1.2c-0.2-0.5-0.3-1-0.3-1.5
		s0.1-1.1,0.3-1.5c0.2-0.5,0.4-0.9,0.8-1.2c0.3-0.3,0.7-0.6,1.2-0.8c0.5-0.2,0.9-0.3,1.5-0.3c0.5,0,0.9,0.1,1.3,0.3
		c0.4,0.2,0.7,0.4,0.9,0.7c0.2,0.3,0.4,0.7,0.4,1.2h0.3l-0.3,0.9c-0.1-0.6-0.5-1.1-0.9-1.5c-0.5-0.4-1-0.6-1.7-0.6
		c-0.5,0-1,0.1-1.4,0.4c-0.4,0.2-0.7,0.6-0.9,1c-0.2,0.4-0.3,0.9-0.3,1.5c0,0.4,0.1,0.8,0.2,1.2c0.1,0.4,0.3,0.7,0.6,0.9
		c0.2,0.3,0.5,0.5,0.9,0.6c0.3,0.1,0.7,0.2,1.1,0.2c0.4,0,0.9-0.1,1.2-0.3c0.4-0.2,0.7-0.4,0.9-0.7c0.2-0.3,0.4-0.7,0.5-1.1l1,0.2
		c-0.1,0.6-0.3,1.1-0.7,1.5c-0.3,0.4-0.7,0.8-1.2,1C97,18.4,96.4,18.5,95.8,18.5z M98.4,13.9V11h1v2.9H98.4z"/>
	<path class="st1" d="M102,17.6h0.8v0.8h-2.7v-0.8h1v-6.2h-1v-0.8h1.9V17.6z M104.7,17.6V15c0-0.4-0.1-0.7-0.3-0.9s-0.4-0.3-0.8-0.3
		c-0.3,0-0.6,0.1-0.8,0.2c-0.2,0.2-0.4,0.4-0.6,0.7c-0.1,0.3-0.2,0.7-0.2,1.1l-0.2-1h0.2c0.1-0.4,0.2-0.7,0.3-1
		c0.2-0.3,0.4-0.5,0.7-0.6c0.3-0.1,0.6-0.2,0.9-0.2c0.5,0,1,0.2,1.2,0.5c0.3,0.3,0.4,0.8,0.4,1.4v2.7h0.9v0.8h-2.7v-0.8H104.7z"/>
	<path class="st1" d="M109.1,18.4c-0.5,0-1-0.1-1.3-0.4c-0.3-0.3-0.4-0.6-0.4-1.1c0-0.4,0.1-0.8,0.4-1c0.2-0.2,0.7-0.4,1.2-0.5
		l2.3-0.5v0.6l-2.1,0.5c-0.3,0.1-0.5,0.2-0.6,0.3c-0.1,0.1-0.2,0.3-0.2,0.5c0,0.2,0.1,0.4,0.2,0.6c0.2,0.1,0.4,0.2,0.7,0.2
		c0.3,0,0.7-0.1,0.9-0.3c0.3-0.2,0.5-0.4,0.6-0.7c0.1-0.3,0.2-0.7,0.2-1.1l0.2,1.2h-0.3c-0.1,0.5-0.3,1-0.6,1.2
		C110,18.3,109.6,18.4,109.1,18.4z M111.5,18.4c-0.2,0-0.3-0.1-0.4-0.2c-0.1-0.1-0.1-0.3-0.1-0.5v-1.3l0.1-0.2l0-0.6l0-0.4v-0.4
		c0-0.2,0-0.4-0.1-0.6c-0.1-0.2-0.2-0.3-0.4-0.3c-0.2-0.1-0.4-0.1-0.7-0.1c-0.4,0-0.7,0.1-0.9,0.2c-0.2,0.2-0.4,0.4-0.4,0.7
		l-0.9-0.2c0.1-0.4,0.2-0.7,0.4-0.9c0.2-0.2,0.4-0.4,0.7-0.5s0.7-0.2,1.1-0.2c0.5,0,0.9,0.1,1.2,0.2c0.3,0.1,0.5,0.3,0.7,0.6
		c0.2,0.3,0.2,0.6,0.2,1v2.8h0.7v0.8H111.5z"/>
	<path class="st1" d="M115.4,17.6h1v0.8h-2.9v-0.8h1v-3.7h-1v-0.8h1.9V17.6z M117.3,14.1c-0.1,0-0.1,0-0.2,0c-0.1,0-0.1,0-0.2,0
		c-0.4,0-0.8,0.2-1.1,0.5c-0.3,0.3-0.4,0.8-0.4,1.3l-0.2-1.2h0.2c0-0.4,0.1-0.7,0.3-0.9c0.1-0.2,0.3-0.4,0.5-0.6
		c0.2-0.1,0.5-0.2,0.8-0.2c0.1,0,0.1,0,0.2,0c0.1,0,0.1,0,0.2,0V14.1z"/>
	<path class="st1" d="M119.5,17c0,0.2,0,0.4,0.1,0.5c0.1,0.1,0.2,0.2,0.4,0.2c0.2,0,0.3-0.1,0.4-0.2c0.1-0.1,0.1-0.3,0.1-0.5v-0.5
		h0.8V17c0,0.3,0,0.6-0.1,0.8c-0.1,0.2-0.2,0.4-0.4,0.5c-0.2,0.1-0.4,0.2-0.8,0.2c-0.3,0-0.6-0.1-0.8-0.2c-0.2-0.1-0.4-0.3-0.5-0.5
		c-0.1-0.2-0.1-0.5-0.1-0.8v-3.1h-0.9v-0.8h0.9v-1.3h0.9v1.3h1.7l0,0.8h-1.7V17z"/>
</g>
<circle id="XMLID_412_" class="st2" cx="38.6" cy="19.9" r="1.6"/>
<circle id="XMLID_411_" class="st2" cx="47.5" cy="27.1" r="2.1"/>
<circle id="XMLID_410_" class="st2" cx="63.4" cy="14.4" r="2.1"/>
<path id="XMLID_409_" class="st2" d="M38.3,18.5l9.2,8.1c0,0,9.8-8.8,15-13.1c0.4,0.3,0.7,0.6,1,1c-5.3,4.7-10.9,9.6-16.2,14.4
	c-5.3-4.6-4.8-4.5-10-9.2C37.6,19,38.3,18.5,38.3,18.5z"/>
<path id="XMLID_408_" class="st3" d="M64,6.5c1.3,1.2,5.4-1,7.8-3C77-0.7,78.2-6.6,78.5-7.7c0.7-3.4,0.3-4.5,0-9.8
	c-0.2-7,0.4-11.7,0.4-11.7s-8.7,4.1-12,7c-4,3.5-6,5.3-7.4,8.5c-3,7.1,0,15.4,1.4,15.4c1,0,0.7-4.1,3.9-10.1
	c2.7-5.1,7.4-8.8,7.4-8.8s-0.4,1-1.7,4.2c-1,2.3-3.3,7.8-4.9,12.4C63.3,5.6,63.8,6.2,64,6.5z"/>
<path id="XMLID_407_" class="st2" d="M64.3,14.5c0-7.8,0.3-12.4,1.5-15.6c0.4-1,1-2.8,2.3-6.1c1.5-3.8,1.7-4.4,3-7.6
	c1-2.5,1.7-3.7,1.6-3.8c-0.2-0.1-2,3.2-3.2,5.3c-1.9,3.6-3,5.4-4,8.1c-0.6,1.5-1.7,4-2.4,7.5c-0.7,3.5-0.7,5.7-0.7,7.2s0,5.1,0,5.1
	L64.3,14.5z"/>
<g id="XMLID_404_">
	<path id="XMLID_406_" class="st4" d="M84.4-12.1c0.4,0.5,1.9,0.1,2.9-0.4c2-1,3-2.9,3.1-3.2c0.5-1.1,0.4-1.5,0.7-3.3
		c0.5-2.4,1-3.9,1-3.9s-3.3,0.7-4.6,1.4c-1.7,0.9-2.4,1.3-3.1,2.3c-1.6,2.2-1.2,5.2-0.7,5.3c0.4,0.1,0.6-1.3,2.1-3.1
		c1.3-1.5,3.2-2.4,3.2-2.4s-0.2,0.3-0.9,1.3c-0.5,0.7-1.7,2.3-2.6,3.8C84.2-12.4,84.3-12.1,84.4-12.1z"/>
	<path id="XMLID_405_" class="st4" d="M84.5-11.9c0.4-1.2,0.6-1.9,1.1-2.6c0.2-0.3,0.6-0.9,1.3-1.9c0.8-1.1,0.9-1.3,1.6-2.3
		c0.6-0.7,0.9-1.1,0.8-1.1c0,0-1,0.9-1.5,1.5c-1,1-1.4,1.6-2,2.4c-0.3,0.5-0.9,1.2-1.4,2.3c-0.3,0.6-0.4,1.1-0.6,1.5L84.5-11.9z"/>
</g>
<g id="XMLID_401_">
	<path id="XMLID_403_" class="st5" d="M74.9,6.1c-1.1-0.7-0.3-4.1,0.6-6.3c2-4.6,6-6.7,6.8-7.1c2.3-1.2,3.2-1.1,7.1-1.9
		c5.2-1.3,8.5-2.7,8.5-2.7s-1.2,7.2-2.7,10.1c-1.8,3.6-2.7,5.5-4.7,7.1C85.9,9,79.3,8.5,79,7.4c-0.2-0.7,2.8-1.3,6.6-4.9
		c3.2-3,4.9-7.1,4.9-7.1s-0.6,0.5-2.7,2.1c-1.5,1.2-5,4-8,6.1C75.7,6.4,75.2,6.2,74.9,6.1z"/>
	<path id="XMLID_402_" class="st5" d="M78.6,7.1c1.2-0.6,2.2-1.2,3-1.9c0.6-0.5,1.9-1.5,3.8-3.5C87.5-0.5,87.9-1,89.3-3
		c1.2-1.7,1.4-2.5,1.5-2.4c0.1,0.1-0.9,3-1.9,4.4c-1.9,2.5-2.8,3.5-4.4,5c-0.9,0.9-2.4,2.2-4.6,3.7c-0.2,0.1-0.3,0.2-0.4,0.3
		L78.6,7.1z"/>
</g>
</svg>
