<?xml version="1.0" encoding="utf-8"?>
<!-- Generator: Adobe Illustrator 19.0.0, SVG Export Plug-In . SVG Version: 6.00 Build 0)  -->
<svg version="1.1" id="Layer_1" xmlns="http://www.w3.org/2000/svg" xmlns:xlink="http://www.w3.org/1999/xlink" x="0px" y="0px"
	 viewBox="-293 385 24 24" style="enable-background:new -293 385 24 24;" xml:space="preserve">
<style type="text/css">
	.st0{fill:#FF9933;}
</style>
<path class="st0" d="M-274.2,394.7c0.3-2-1.2-3.1-3.3-3.8l0.7-2.7l-1.7-0.4l-0.7,2.7c-0.4-0.1-0.9-0.2-1.3-0.3l0.7-2.7l-1.7-0.4
	l-0.7,2.7c-0.4-0.1-0.7-0.2-1.1-0.3l0,0l-2.3-0.6l-0.4,1.8c0,0,1.2,0.3,1.2,0.3c0.7,0.2,0.8,0.6,0.8,1l-0.8,3.1c0,0,0.1,0,0.2,0.1
	c-0.1,0-0.1,0-0.2,0l-1.1,4.4c-0.1,0.2-0.3,0.5-0.8,0.4c0,0-1.2-0.3-1.2-0.3l-0.8,1.9l2.2,0.5c0.4,0.1,0.8,0.2,1.2,0.3l-0.7,2.8
	l1.7,0.4l0.7-2.7c0.5,0.1,0.9,0.2,1.3,0.3l-0.7,2.7l1.7,0.4l0.7-2.8c2.8,0.5,5,0.3,5.9-2.2c0.7-2.1,0-3.3-1.5-4
	C-275.2,396.9-274.4,396.1-274.2,394.7z M-278,400c-0.5,2.1-4,1-5.1,0.7l0.9-3.7C-281.1,397.3-277.5,397.8-278,400z M-277.5,394.6
	c-0.5,1.9-3.4,0.9-4.3,0.7l0.8-3.3C-280,392.2-277,392.7-277.5,394.6z"/>
</svg>
