<svg xmlns="http://www.w3.org/2000/svg" viewBox="0 0 24 24" fill="currentColor" width="24" height="24">
  <path d="M12 2c.552 0 1 .448 1 1v2h-2V3c0-.552.448-1 1-1zM3 11v2h2v-2H3zm16 0v2h2v-2h-2zM11 19v2c0 .552.448 1 1 1s1-.448 1-1v-2h-2zM19 11h-2v2h2c.552 0 1 .448 1 1s-.448 1-1 1h-2v2c0 .552-.448 1-1 1s-1-.448-1-1v-2h-2v-2h2v-2c0-.552-.448-1-1-1s-1 .448-1 1v2H9v-2H7v2c0 .552-.448 1-1 1s-1-.448-1-1v-2H3c-.552 0-1-.448-1-1s.448-1 1-1h2V9H3c-.552 0-1-.448-1-1s.448-1 1-1h2V5c0-.552.448-1 1-1s1 .448 1 1v2h2v2h2v2h2V9h2V7c0-.552.448-1 1-1s1 .448 1 1v2h2c.552 0 1 .448 1 1s-.448 1-1 1z"/>
</svg>