<svg xmlns="http://www.w3.org/2000/svg" width="24" height="24" viewBox="0 0 24 24" fill="currentColor">
  <path d="M10.25,7.15c.34-.23.69-.43,1.05-.62a6.83,6.83,0,0,1,1.3-.49,5,5,0,0,1,1.4-.24,4.24,4.24,0,0,1,.75,0,3.31,3.31,0,0,1,1.15.35c.35.16.68.39.95.65a2.36,2.36,0,0,1,.6,1,2.18,2.18,0,0,1,.2,1.1,5.29,5.29,0,0,1-.45,2.2,7,7,0,0,1-1,1.75,8.28,8.28,0,0,1-1.6,1.6,9.1,9.1,0,0,1-2.15,1.25,12.23,12.23,0,0,1-1.2.45V20H9.55V14.45h-.2a10.83,10.83,0,0,1-1.6-1,7,7,0,0,1-1.15-1.1,4.45,4.45,0,0,1-.8-1.35A3.84,3.84,0,0,1,5.5,9.6a3.46,3.46,0,0,1,.4-1.7,3.14,3.14,0,0,1,1-.95,3.33,3.33,0,0,1,1.4-.4,4.42,4.42,0,0,1,1.95.2ZM8.6,10.8a2.38,2.38,0,0,0-.2.95,1.74,1.74,0,0,0,.3,1.1,3.14,3.14,0,0,0,.7.85,5.4,5.4,0,0,0,1.1.6h.25V12.1h.2a5.7,5.7,0,0,0,1.85-.85,4.3,4.3,0,0,0,1.2-1.3,3.22,3.22,0,0,0,.4-1.5,1.28,1.28,0,0,0-.2-.8,1.36,1.36,0,0,0-.7-.5,2.2,2.2,0,0,0-1-.15,3.53,3.53,0,0,0-1.55.4,4.5,4.5,0,0,0-1.2.7A2.86,2.86,0,0,0,8.6,10.8Z"/>
</svg>