<?xml version="1.0" encoding="utf-8"?>
<!-- Generator: Adobe Illustrator 19.0.0, SVG Export Plug-In . SVG Version: 6.00 Build 0)  -->
<svg version="1.1" id="Layer_1" xmlns="http://www.w3.org/2000/svg" xmlns:xlink="http://www.w3.org/1999/xlink" x="0px" y="0px"
	 viewBox="-297 389 16 16" style="enable-background:new -297 389 16 16;" xml:space="preserve">
<style type="text/css">
	.st0{fill:#FF3333;}
</style>
<path class="st0" d="M-291.9,390.1c0.2-0.3,0.7-0.3,1-0.1c0.7,0.6,1,1.3,0.8,2c-0.1,0.6-0.5,1-0.9,1.2c-0.2,0.2-0.3,0.3-0.3,0.4
	c0,0.1,0,0.1,0,0.2c0,0.1,0.2,0.3,0.3,0.4c0.3,0.2,0.4,0.7,0.2,1c-0.2,0.3-0.7,0.4-1,0.2c-0.3-0.2-0.8-0.6-0.9-1.3
	c-0.2-0.7,0.1-1.4,0.8-2l0,0l0,0c0.1-0.1,0.3-0.3,0.3-0.4c0-0.1,0-0.1,0-0.2c0-0.1-0.1-0.2-0.3-0.4
	C-292.1,390.9-292.2,390.4-291.9,390.1z"/>
<path class="st0" d="M-287.6,392c0.2,0.3,0.2,0.7-0.1,1c-0.2,0.2-0.3,0.3-0.3,0.4c0,0.1,0,0.1,0,0.2c0,0.1,0.2,0.3,0.3,0.4
	c0.3,0.2,0.4,0.7,0.2,1s-0.7,0.4-1,0.2c-0.3-0.2-0.8-0.6-0.9-1.3c-0.2-0.7,0.1-1.4,0.8-2C-288.2,391.6-287.8,391.7-287.6,392z"/>
<path class="st0" d="M-281.9,398h-1.7c0.1-0.6,0-1.1-0.1-1.5c-0.1-0.3-0.4-0.5-0.7-0.5h-10.8c-0.3,0-0.6,0.2-0.7,0.5
	c-0.2,0.8-0.1,2,0.3,3.3c0.4,1.3,1.2,2.8,2.6,4.2c0.1,0.1,0.3,0.2,0.5,0.2h5.4c0.2,0,0.4-0.1,0.5-0.2c0.3-0.3,0.6-0.6,0.8-0.9
	c1.9-0.1,3.1-0.7,3.8-1.6c0.7-0.9,0.7-2.1,0.7-2.7C-281.2,398.3-281.5,398-281.9,398z M-285.2,398.5c-0.2,1-0.7,2.2-1.5,3.3
	c-0.2,0.3-0.5,0.6-0.7,0.8h-4.8c-1.1-1.1-1.7-2.3-2.1-3.4c-0.3-0.8-0.3-1.5-0.3-2h9.5C-285,397.7-285.1,398.1-285.2,398.5z
	 M-283.1,400.6c-0.3,0.4-0.7,0.7-1.7,0.9c0.4-0.7,0.7-1.4,0.9-2.1h1.2C-282.7,399.8-282.8,400.2-283.1,400.6z"/>
</svg>
