<?xml version="1.0" encoding="utf-8"?>
<!-- Generator: Adobe Illustrator 19.0.0, SVG Export Plug-In . SVG Version: 6.00 Build 0)  -->
<svg version="1.1" id="Layer_1" xmlns="http://www.w3.org/2000/svg" xmlns:xlink="http://www.w3.org/1999/xlink" x="0px" y="0px"
	 viewBox="-297 389 16 16" style="enable-background:new -297 389 16 16;" xml:space="preserve">
<style type="text/css">
	.st0{fill:#F7DF1E;}
</style>
<g>
	<g>
		<path class="st0" d="M-282,393.8c-0.6,0.4-1.1,0.7-1.7,1.1c-0.1-0.2-0.2-0.3-0.3-0.5c-0.4-0.4-1-0.6-1.5-0.4
			c-0.6,0.3-0.7,1.1-0.2,1.5c0.3,0.2,0.6,0.4,0.9,0.5c0.6,0.3,1.2,0.6,1.9,0.9c0.3,0.2,0.7,0.4,0.9,0.7c0.5,0.5,0.7,1.1,0.8,1.7
			c0,0.5,0,1-0.2,1.5c-0.3,0.8-1,1.4-1.8,1.6c-1.4,0.4-2.7,0.4-4-0.3c-0.7-0.4-1.2-0.9-1.5-1.6c0.6-0.3,1.2-0.7,1.8-1
			c0.1,0.1,0.1,0.2,0.2,0.2c0.3,0.5,0.8,0.9,1.4,1c0.5,0.1,0.9,0.1,1.4-0.1c0.8-0.3,0.8-1.3,0.2-1.7c-0.4-0.3-0.8-0.5-1.3-0.7
			c-0.6-0.2-1.1-0.5-1.6-0.8c-0.9-0.6-1.3-1.4-1.4-2.4c0-0.9,0.2-1.6,0.8-2.2c0.4-0.4,1-0.7,1.5-0.8c0.8-0.2,1.7-0.1,2.5,0.3
			C-282.8,392.7-282.4,393.2-282,393.8z"/>
		<path class="st0" d="M-296.5,400.8c0.6-0.4,1.2-0.7,1.8-1.1c0.1,0.1,0.2,0.3,0.2,0.4c0.2,0.3,0.4,0.5,0.7,0.6
			c0.4,0.1,0.7,0.1,1.1-0.1c0.3-0.2,0.4-0.5,0.5-0.8c0-0.2,0-0.3,0-0.5c0-2.4,0-4.7,0-7.1c0-0.2,0-0.2,0.2-0.2c0.6,0,1.2,0,1.8,0
			c0.1,0,0.2,0,0.2,0.1c0,2.4,0,4.8,0,7.2c0,0.5-0.1,1-0.3,1.5c-0.4,0.9-1,1.4-1.9,1.7c-1,0.2-1.9,0.2-2.8-0.3
			C-295.8,402.1-296.2,401.5-296.5,400.8C-296.5,400.9-296.5,400.8-296.5,400.8z"/>
	</g>
</g>
</svg>
