<?xml version="1.0" encoding="utf-8"?>
<!-- Generator: Adobe Illustrator 19.0.0, SVG Export Plug-In . SVG Version: 6.00 Build 0)  -->
<svg version="1.1" id="Layer_1" xmlns="http://www.w3.org/2000/svg" xmlns:xlink="http://www.w3.org/1999/xlink" x="0px" y="0px"
	 viewBox="-297 389 16 16" style="enable-background:new -297 389 16 16;" xml:space="preserve">
<style type="text/css">
	.st0{fill:#FFFFFF;}
</style>
<path class="st0" d="M-295,391c0-1.1,0.9-2,2-2h8c1.1,0,2,0.9,2,2v12c0,1.1-0.9,2-2,2h-8c-1.1,0-2-0.9-2-2V391z"/>
<path d="M-289,393c0.3,0,0.5,0.2,0.5,0.5v3h3c0.3,0,0.5,0.2,0.5,0.5s-0.2,0.5-0.5,0.5h-3v3c0,0.3-0.2,0.5-0.5,0.5s-0.5-0.2-0.5-0.5
	v-3h-3c-0.3,0-0.5-0.2-0.5-0.5s0.2-0.5,0.5-0.5h3v-3C-289.5,393.2-289.3,393-289,393"/>
</svg>
