<?xml version="1.0" encoding="utf-8"?>
<!-- Generator: Adobe Illustrator 19.0.0, SVG Export Plug-In . SVG Version: 6.00 Build 0)  -->
<svg version="1.1" id="Layer_1" xmlns="http://www.w3.org/2000/svg" xmlns:xlink="http://www.w3.org/1999/xlink" x="0px" y="0px"
	 viewBox="-293 385 24 24" style="enable-background:new -293 385 24 24;" xml:space="preserve">
<style type="text/css">
	.st0{fill:#FFFFFF;}
	.st1{fill:#FF9933;}
</style>
<g>
	<path class="st0" d="M-285.8,408.7c-0.3,0-0.6-0.2-0.8-0.4l-5.6-8.2c-0.3-0.5-0.2-1.1,0.3-1.4c0.5-0.3,1.1-0.2,1.4,0.3l4.4,6.4
		l3.8-14.3c0.1-0.4,0.5-0.7,0.9-0.7c0.4,0,0.8,0.2,1,0.7l4.1,11.4c0.2,0.5-0.1,1.1-0.6,1.3c-0.5,0.2-1.1-0.1-1.3-0.6l-3-8.4
		l-3.6,13.3c-0.1,0.4-0.4,0.7-0.8,0.7C-285.7,408.7-285.8,408.7-285.8,408.7z"/>
</g>
<g>
	<path class="st1" d="M-276.9,404.1c-0.1,0-0.2,0-0.3,0c-0.5-0.1-0.9-0.7-0.7-1.2l4.4-16.4c0.1-0.5,0.7-0.8,1.2-0.7
		c0.5,0.1,0.9,0.7,0.7,1.2l-4.4,16.4C-276,403.8-276.4,404.1-276.9,404.1z"/>
</g>
</svg>
