<?xml version="1.0" encoding="utf-8"?>
<!-- Generator: Adobe Illustrator 19.0.0, SVG Export Plug-In . SVG Version: 6.00 Build 0)  -->
<svg version="1.1" id="Layer_1" xmlns="http://www.w3.org/2000/svg" xmlns:xlink="http://www.w3.org/1999/xlink" x="0px" y="0px"
	 viewBox="-293 385 24 24" style="enable-background:new -293 385 24 24;" xml:space="preserve">
<style type="text/css">
	.st0{fill:none;stroke:#FFFFFF;stroke-width:2;stroke-linecap:round;stroke-linejoin:round;}
</style>
<circle class="st0" cx="-281" cy="397" r="3"/>
<path class="st0" d="M-273.6,400c-0.3,0.6-0.1,1.3,0.3,1.8l0.1,0.1c0.8,0.8,0.8,2,0,2.8c0,0,0,0,0,0c-0.8,0.8-2,0.8-2.8,0
	c0,0,0,0,0,0l-0.1-0.1c-0.5-0.5-1.2-0.6-1.8-0.3c-0.6,0.3-1,0.9-1,1.5v0.2c0,1.1-0.9,2-2,2c-1.1,0-2-0.9-2-2v-0.1
	c0-0.7-0.4-1.3-1.1-1.5c-0.6-0.3-1.3-0.1-1.8,0.3l-0.1,0.1c-0.8,0.8-2,0.8-2.8,0c0,0,0,0,0,0c-0.8-0.8-0.8-2,0-2.8c0,0,0,0,0,0
	l0.1-0.1c0.5-0.5,0.6-1.2,0.3-1.8c-0.3-0.6-0.9-1-1.5-1h-0.2c-1.1,0-2-0.9-2-2c0-1.1,0.9-2,2-2h0.1c0.7,0,1.3-0.4,1.5-1.1
	c0.3-0.6,0.1-1.3-0.3-1.8l-0.1-0.1c-0.8-0.8-0.8-2,0-2.8c0,0,0,0,0,0c0.8-0.8,2-0.8,2.8,0c0,0,0,0,0,0l0.1,0.1
	c0.5,0.5,1.2,0.6,1.8,0.3h0.1c0.6-0.3,1-0.9,1-1.5V388c0-1.1,0.9-2,2-2s2,0.9,2,2v0.1c0,0.7,0.4,1.3,1,1.5c0.6,0.3,1.3,0.1,1.8-0.3
	l0.1-0.1c0.8-0.8,2-0.8,2.8,0c0,0,0,0,0,0c0.8,0.8,0.8,2,0,2.8c0,0,0,0,0,0l-0.1,0.1c-0.5,0.5-0.6,1.2-0.3,1.8v0.1
	c0.3,0.6,0.9,1,1.5,1h0.2c1.1,0,2,0.9,2,2s-0.9,2-2,2h-0.1C-272.7,399-273.3,399.4-273.6,400z"/>
</svg>
