<?xml version="1.0" encoding="utf-8"?>
<!-- Generator: Adobe Illustrator 19.0.0, SVG Export Plug-In . SVG Version: 6.00 Build 0)  -->
<svg version="1.1" id="Layer_1" xmlns="http://www.w3.org/2000/svg" xmlns:xlink="http://www.w3.org/1999/xlink" x="0px" y="0px"
	 viewBox="-293 385 24 24" style="enable-background:new -293 385 24 24;" xml:space="preserve">
<style type="text/css">
	.st0{fill:#FFFFFF;}
</style>
<path class="st0" d="M-271.8,387.3c-0.7-0.5-1.5-0.6-2.3-0.2c-1.1,0.5-1.5,1.6-1,3c-0.1,0-0.1,0.1-0.1,0.1
	c-4.3,4.3-8.6,8.6-12.8,12.9c-0.5-0.2-0.9-0.3-1.4-0.2c-1,0.2-1.7,0.9-1.8,1.9c-0.1,0.8,0.5,1.8,1.3,2.2c0.9,0.4,2,0.1,2.6-0.6
	c0.5-0.7,0.5-1.4,0.3-2.2c0.3-0.3,0.7-0.6,1-1c3.2-3.2,6.4-6.4,9.6-9.6c0.8-0.8,1.7-1.6,2.4-2.5l0,0c0.5,0.1,1,0.2,1.5,0.1
	c0.9-0.2,1.5-0.7,1.7-1.6C-270.7,388.7-271,387.9-271.8,387.3z"/>
</svg>
